<svg width="17.000000" height="20.000000" viewBox="0 0 17 20" fill="none" xmlns="http://www.w3.org/2000/svg" xmlns:xlink="http://www.w3.org/1999/xlink">
	<desc>
			Created with Pixso.
	</desc>
	<defs/>
	<path id="Vector" d="M10.12 9.62C9.55 10.18 8.79 10.5 8 10.5C7.2 10.5 6.44 10.18 5.87 9.62C5.31 9.05 5 8.29 5 7.5C5 6.7 5.31 5.94 5.87 5.37C6.44 4.81 7.2 4.5 8 4.5C8.79 4.5 9.55 4.81 10.12 5.37C10.68 5.94 11 6.7 11 7.5C11 8.29 10.68 9.05 10.12 9.62Z" stroke="#757575" stroke-opacity="1.000000" stroke-width="1.500000" stroke-linejoin="round"/>
	<path id="Vector" d="M8 18.75C8 18.75 0.5 14.64 0.5 7.5C0.5 5.51 1.29 3.6 2.69 2.19C4.1 0.79 6.01 0 8 0C9.98 0 11.89 0.79 13.3 2.19C14.7 3.6 15.5 5.51 15.5 7.5C15.5 14.64 8 18.75 8 18.75Z" stroke="#757575" stroke-opacity="1.000000" stroke-width="1.500000" stroke-linejoin="round"/>
</svg>
